<?xml version="1.0" encoding="UTF-8"?>
<svg xmlns="http://www.w3.org/2000/svg" xmlns:xlink="http://www.w3.org/1999/xlink" width="256px" height="256px" viewBox="0 0 256 256" version="1.1">
<g id="surface1">
<path style=" stroke:none;fill-rule:nonzero;fill:rgb(32.54902%,61.960784%,26.27451%);fill-opacity:1;" d="M 128 255.523438 C 124.023438 255.523438 120.316406 254.585938 116.871094 252.941406 L 81.621094 234.398438 C 76.324219 231.816406 78.972656 230.875 80.5625 230.40625 C 87.71875 228.292969 89.042969 227.824219 96.464844 224.066406 C 97.257812 223.597656 98.320312 223.832031 99.113281 224.304688 L 126.144531 238.621094 C 127.203125 239.09375 128.53125 239.09375 129.324219 238.621094 L 235.066406 184.394531 C 236.125 183.925781 236.65625 182.988281 236.65625 181.8125 L 236.65625 73.59375 C 236.65625 72.417969 236.125 71.480469 235.066406 71.011719 L 129.324219 17.019531 C 128.265625 16.546875 126.941406 16.546875 126.144531 17.019531 L 20.40625 71.011719 C 19.34375 71.480469 18.816406 72.65625 18.816406 73.59375 L 18.816406 181.8125 C 18.816406 182.753906 19.34375 183.925781 20.40625 184.394531 L 49.292969 199.183594 C 64.929688 206.226562 74.730469 198.011719 74.730469 189.796875 L 74.730469 82.984375 C 74.730469 81.574219 76.058594 80.167969 77.914062 80.167969 L 91.429688 80.167969 C 93.019531 80.167969 94.609375 81.339844 94.609375 82.984375 L 94.609375 189.792969 C 94.609375 208.339844 83.214844 219.136719 63.335938 219.136719 C 57.242188 219.136719 52.472656 219.136719 38.957031 213.269531 L 11.128906 199.183594 C 4.238281 195.664062 0 189.089844 0 182.046875 L 0 73.828125 C 0 66.785156 4.238281 60.214844 11.128906 56.691406 L 116.871094 2.464844 C 123.496094 -0.820312 132.503906 -0.820312 139.128906 2.464844 L 244.871094 56.691406 C 251.761719 60.214844 256 66.785156 256 73.828125 L 256 182.046875 C 256 189.089844 251.761719 195.664062 244.871094 199.183594 L 139.128906 253.414062 C 135.683594 254.820312 131.710938 255.527344 128 255.527344 Z M 160.597656 181.109375 C 114.21875 181.109375 104.679688 162.328125 104.679688 146.367188 C 104.679688 144.957031 106.003906 143.550781 107.859375 143.550781 L 121.640625 143.550781 C 123.230469 143.550781 124.554688 144.488281 124.554688 145.898438 C 126.675781 158.339844 132.769531 164.441406 160.859375 164.441406 C 183.121094 164.441406 192.664062 159.980469 192.664062 149.417969 C 192.664062 143.316406 190.011719 138.855469 155.296875 135.800781 C 126.410156 133.21875 108.390625 127.585938 108.390625 107.164062 C 108.390625 88.148438 126.410156 76.878906 156.621094 76.878906 C 190.542969 76.878906 207.238281 87.210938 209.359375 109.746094 C 209.359375 110.449219 209.09375 111.152344 208.5625 111.859375 C 208.03125 112.328125 207.238281 112.796875 206.441406 112.796875 L 192.664062 112.796875 C 191.335938 112.796875 190.011719 111.859375 189.746094 110.683594 C 186.566406 97.773438 178.351562 93.546875 156.621094 93.546875 C 132.242188 93.546875 129.324219 101.058594 129.324219 106.695312 C 129.324219 113.5 132.769531 115.613281 165.632812 119.371094 C 198.226562 123.125 213.597656 128.523438 213.597656 148.714844 C 213.332031 169.371094 194.253906 181.109375 160.597656 181.109375 Z M 160.597656 181.109375 "/>
</g>
</svg>
