<?xml version="1.0" encoding="UTF-8"?>
<svg xmlns="http://www.w3.org/2000/svg" xmlns:xlink="http://www.w3.org/1999/xlink" width="48px" height="48px" viewBox="0 0 48 48" version="1.1">
<defs>
<linearGradient id="linear0" gradientUnits="userSpaceOnUse" x1="128" y1="0" x2="128" y2="256" gradientTransform="matrix(0.1875,0,0,0.1875,0,0)">
<stop offset="0.192708" style="stop-color:rgb(98.823529%,70.196078%,69.803922%);stop-opacity:1;"/>
<stop offset="1" style="stop-color:rgb(77.254902%,52.941176%,93.333333%);stop-opacity:1;"/>
</linearGradient>
<linearGradient id="linear1" gradientUnits="userSpaceOnUse" x1="189.089005" y1="126.764999" x2="153.565002" y2="201.132004" gradientTransform="matrix(0.1875,0,0,0.1875,0,0)">
<stop offset="0" style="stop-color:rgb(100%,8.627451%,22.352941%);stop-opacity:1;"/>
<stop offset="1" style="stop-color:rgb(100%,8.627451%,22.352941%);stop-opacity:0;"/>
</linearGradient>
</defs>
<g id="surface1">
<path style=" stroke:none;fill-rule:nonzero;fill:url(#linear0);" d="M 11.25 0 L 36.75 0 C 42.964844 0 48 5.035156 48 11.25 L 48 36.75 C 48 42.964844 42.964844 48 36.75 48 L 11.25 48 C 5.035156 48 0 42.964844 0 36.75 L 0 11.25 C 0 5.035156 5.035156 0 11.25 0 Z M 11.25 0 "/>
<path style=" stroke:none;fill-rule:evenodd;fill:rgb(19.215687%,15.294118%,29.019609%);fill-opacity:1;" d="M 29.574219 6.191406 C 29.878906 6.570312 30.035156 7.082031 30.347656 8.109375 L 37.171875 30.527344 C 34.609375 29.195312 31.855469 28.265625 29.011719 27.765625 L 24.570312 12.75 C 24.535156 12.628906 24.460938 12.523438 24.359375 12.449219 C 24.261719 12.375 24.140625 12.335938 24.015625 12.335938 C 23.890625 12.335938 23.765625 12.375 23.667969 12.449219 C 23.566406 12.527344 23.496094 12.632812 23.460938 12.75 L 19.070312 27.757812 C 16.214844 28.253906 13.449219 29.1875 10.875 30.523438 L 17.734375 8.105469 C 18.046875 7.078125 18.203125 6.566406 18.507812 6.1875 C 18.777344 5.851562 19.132812 5.59375 19.53125 5.433594 C 19.984375 5.25 20.519531 5.25 21.589844 5.25 L 26.488281 5.25 C 27.5625 5.25 28.097656 5.25 28.550781 5.433594 C 28.949219 5.59375 29.300781 5.855469 29.574219 6.191406 Z M 29.574219 6.191406 "/>
<path style=" stroke:none;fill-rule:evenodd;fill:rgb(100%,36.470589%,0.392157%);fill-opacity:1;" d="M 30.390625 31.59375 C 29.265625 32.554688 27.019531 33.210938 24.433594 33.210938 C 21.257812 33.210938 18.597656 32.222656 17.890625 30.894531 C 17.636719 31.65625 17.582031 32.527344 17.582031 33.085938 C 17.582031 33.085938 17.414062 35.820312 19.316406 37.722656 C 19.316406 36.734375 20.117188 35.933594 21.105469 35.933594 C 22.796875 35.933594 22.796875 37.410156 22.796875 38.609375 L 22.796875 38.714844 C 22.796875 40.535156 23.90625 42.09375 25.488281 42.75 C 25.242188 42.25 25.117188 41.699219 25.117188 41.144531 C 25.117188 39.40625 26.136719 38.761719 27.320312 38.011719 C 28.261719 37.414062 29.308594 36.75 30.03125 35.417969 C 30.417969 34.703125 30.621094 33.898438 30.621094 33.085938 C 30.621094 32.566406 30.539062 32.0625 30.390625 31.59375 Z M 30.390625 31.59375 "/>
<path style=" stroke:none;fill-rule:evenodd;fill:url(#linear1);" d="M 30.390625 31.59375 C 29.265625 32.554688 27.019531 33.210938 24.433594 33.210938 C 21.257812 33.210938 18.597656 32.222656 17.890625 30.894531 C 17.636719 31.65625 17.582031 32.527344 17.582031 33.085938 C 17.582031 33.085938 17.414062 35.820312 19.316406 37.722656 C 19.316406 36.734375 20.117188 35.933594 21.105469 35.933594 C 22.796875 35.933594 22.796875 37.410156 22.796875 38.609375 L 22.796875 38.714844 C 22.796875 40.535156 23.90625 42.09375 25.488281 42.75 C 25.242188 42.25 25.117188 41.699219 25.117188 41.144531 C 25.117188 39.40625 26.136719 38.761719 27.320312 38.011719 C 28.261719 37.414062 29.308594 36.75 30.03125 35.417969 C 30.417969 34.703125 30.621094 33.898438 30.621094 33.085938 C 30.621094 32.566406 30.539062 32.0625 30.390625 31.59375 Z M 30.390625 31.59375 "/>
</g>
</svg>
