<svg width="43" height="48" fill="none" xmlns="http://www.w3.org/2000/svg"><path d="M21.26 47.91a3.86 3.86 0 01-1.85-.483l-5.853-3.477c-.88-.485-.44-.66-.176-.749 1.188-.396 1.408-.484 2.64-1.188.133-.088.309-.044.44.044l4.49 2.685c.177.088.396.088.529 0l17.562-10.168c.176-.088.264-.264.264-.484V13.8c0-.22-.088-.396-.264-.484L21.48 3.19c-.177-.088-.396-.088-.529 0L3.39 13.315c-.176.088-.264.308-.264.484V34.09c0 .176.088.396.264.484l4.798 2.773c2.597 1.32 4.225-.22 4.225-1.76V15.559c0-.264.22-.528.529-.528h2.244c.264 0 .529.22.529.528v20.028c0 3.477-1.893 5.502-5.194 5.502-1.013 0-1.805 0-4.05-1.1L1.85 37.346A3.715 3.715 0 010 34.134V13.843c0-1.32.704-2.553 1.849-3.213L19.41.462c1.1-.616 2.597-.616 3.697 0L40.67 10.63a3.715 3.715 0 011.849 3.213v20.291c0 1.32-.704 2.553-1.849 3.213L23.108 47.515a4.505 4.505 0 01-1.849.396zm5.413-13.952c-7.702 0-9.287-3.521-9.287-6.514 0-.264.22-.528.528-.528h2.29c.263 0 .483.176.483.44.352 2.332 1.365 3.477 6.03 3.477 3.698 0 5.282-.836 5.282-2.817 0-1.144-.44-1.98-6.206-2.553-4.798-.484-7.79-1.54-7.79-5.37 0-3.565 2.992-5.678 8.01-5.678 5.634 0 8.407 1.937 8.76 6.162a.71.71 0 01-.133.396c-.088.088-.22.177-.352.177H32a.516.516 0 01-.484-.397c-.528-2.42-1.893-3.213-5.502-3.213-4.05 0-4.533 1.409-4.533 2.465 0 1.277.572 1.673 6.03 2.377 5.414.704 7.966 1.716 7.966 5.502-.044 3.873-3.213 6.074-8.803 6.074z" fill="#539E43"/></svg>