<svg width="35" height="35" viewBox="0 0 35 35" fill="none" xmlns="http://www.w3.org/2000/svg">
<circle cx="17.5" cy="17.5" r="17.5" fill="#050505"/>
<path d="M17.4999 0C13.3445 0.000171625 9.32479 1.47303 6.15994 4.15504C2.99509 6.83705 0.891668 10.5532 0.226029 14.6385C-0.43961 18.7239 0.375976 22.9118 2.52685 26.453C4.67773 29.9942 8.02354 32.6576 11.9656 33.9666C12.8406 34.1192 13.1687 33.5963 13.1687 33.1387C13.1687 32.7248 13.1468 31.3521 13.1468 29.8924C8.74999 30.6985 7.61249 28.8249 7.2625 27.8444C6.87413 26.8909 6.25849 26.0459 5.46876 25.3824C4.85626 25.0556 3.98127 24.2494 5.44687 24.2277C6.00649 24.2882 6.54323 24.4821 7.0116 24.7931C7.47998 25.1041 7.86618 25.523 8.13749 26.0142C8.37684 26.4425 8.69868 26.8195 9.08457 27.1236C9.47045 27.4278 9.91281 27.6531 10.3863 27.7867C10.8598 27.9203 11.355 27.9595 11.8438 27.9021C12.3325 27.8447 12.805 27.6918 13.2343 27.4522C13.3101 26.5661 13.7065 25.7376 14.3499 25.121C10.4562 24.6852 6.3875 23.1818 6.3875 16.5149C6.36291 14.7827 7.0047 13.1067 8.18124 11.8306C7.64624 10.3251 7.70884 8.67283 8.35624 7.2117C8.35624 7.2117 9.8218 6.75415 13.1687 8.99827C16.0322 8.21388 19.0552 8.21388 21.9186 8.99827C25.2655 6.73238 26.7311 7.2117 26.7311 7.2117C27.3786 8.67281 27.4412 10.3251 26.9061 11.8306C28.0862 13.1045 28.7285 14.7819 28.6998 16.5149C28.6998 23.2036 24.6092 24.6852 20.7155 25.121C21.1332 25.5426 21.4548 26.0488 21.6586 26.6052C21.8625 27.1616 21.9437 27.7551 21.8968 28.3455C21.8968 30.6768 21.8749 32.5505 21.8749 33.1388C21.8749 33.5963 22.203 34.141 23.078 33.9667C27.0131 32.647 30.3493 29.9774 32.491 26.4344C34.6328 22.8914 35.4406 18.7055 34.7703 14.6242C34.1001 10.5428 31.9954 6.83145 28.8319 4.15271C25.6684 1.47397 21.6521 0.00215244 17.4999 0V0Z" fill="white"/>
</svg>
