<svg width="55" height="55" viewBox="0 0 55 55" fill="none" xmlns="http://www.w3.org/2000/svg">
<path d="M0 0H55V55H0V0Z" fill="#F7DF1E"/>
<path d="M14.4616 45.9619L18.6706 43.4147C19.4826 44.8544 20.2213 46.0725 21.9931 46.0725C23.6914 46.0725 24.7622 45.4082 24.7622 42.8241V25.2502H29.9308V42.8971C29.9308 48.2505 26.7928 50.6871 22.2146 50.6871C18.0799 50.6871 15.6798 48.5457 14.4615 45.9615" fill="black"/>
<path d="M32.738 45.4082L36.9465 42.9715C38.0544 44.7808 39.4942 46.1097 42.0415 46.1097C44.1831 46.1097 45.5488 45.039 45.5488 43.5622C45.5488 41.7901 44.1459 41.1624 41.783 40.129L40.4912 39.5748C36.7621 37.9876 34.2884 35.9939 34.2884 31.785C34.2884 27.9085 37.2419 24.9548 41.857 24.9548C45.1429 24.9548 47.5057 26.0994 49.2038 29.09L45.1796 31.6742C44.2935 30.0868 43.3338 29.4592 41.8571 29.4592C40.3434 29.4592 39.3834 30.4191 39.3834 31.6742C39.3834 33.2248 40.3434 33.8526 42.5583 34.8126L43.8504 35.3663C48.2439 37.2493 50.7175 39.1689 50.7175 43.4883C50.7175 48.1405 47.0626 50.6877 42.1524 50.6877C37.3529 50.6877 34.2516 48.3988 32.7381 45.4082" fill="black"/>
</svg>
